<?xml version="1.0" encoding="UTF-8" standalone="no"?><!DOCTYPE svg PUBLIC "-//W3C//DTD SVG 1.1//EN" "http://www.w3.org/Graphics/SVG/1.1/DTD/svg11.dtd"><svg width="100%" height="100%" viewBox="0 0 9238 12216" version="1.1" xmlns="http://www.w3.org/2000/svg" xmlns:xlink="http://www.w3.org/1999/xlink" xml:space="preserve" xmlns:serif="http://www.serif.com/" style="fill-rule:evenodd;clip-rule:evenodd;stroke-linejoin:round;stroke-miterlimit:2;"><g id="Map_logo"><path id="BG" d="M12268.735,-1422.107c-0,4776.001 0,14882.395 0,15159.592c-21.147,21.147 -27.113,0 -373.825,0c-5083.72,0 -10167.44,0 -15251.16,0c-15.674,-29.104 0,-66.111 0,-99.167l0,-15525.818c32.781,-17.651 35.672,0 465.393,0l15159.592,0c17.648,32.783 -0,35.673 -0,465.393Z"/><path id="Body" d="M382.938,4468.284c-156.02,-2291.339 1542.375,-3806.359 3044.915,-4175.164c2851.443,-699.899 5132.277,1421.18 5202.553,3732.127c49.16,1616.57 -801.726,2532.013 -1000.242,2786.403l-2532.802,3250.299c-599.373,763.464 -601.334,769.708 -617.496,766.673c-16.7,-3.135 -2387.993,-3090.55 -2862.129,-3696.436c-650.326,-831.034 -1121.675,-1388.865 -1234.799,-2663.903Zm3943.104,-2830.366c-270.42,28.665 -490.991,50.092 -913.102,254.907c-1068.444,518.424 -1695.266,2037.765 -832.466,3266.229c999.724,1423.417 3327.184,1329.156 4088.87,-450.156c560.382,-1309.063 -391.107,-3172.817 -2343.302,-3070.979Z" style="fill:#fff;"/><path id="bottom_ring" d="M5852.882,10487.951c-558.572,-40.979 -635.202,-11.683 -589.665,-65.063c366.177,-429.255 439.051,-541.325 467.156,-553.461c27.434,-11.847 625.067,39.166 716.9,48.18c1544.471,151.585 1979.853,392.53 2132.835,477.192c487.123,269.579 424.225,667.127 200.119,876.434c-928.77,867.437 -6455.877,942.58 -8207.625,216.28c-610.113,-252.962 -719.395,-766.255 -148.755,-1092.853c672.386,-384.831 2440.236,-510.867 2773.562,-526.103c18.116,-0.828 26.927,-1.231 160.776,159.799c335.392,403.499 346.428,398.956 344.067,421.353c-3.59,34.061 -761.078,-2.058 -1939.944,193.532c-651.096,108.026 -960.049,242.727 -959.227,263.604c1.617,41.091 1025.32,425.38 3370.921,454.457c2876.83,35.663 3939.57,-402.979 4024.162,-443.834c58.044,-28.034 -356.23,-151.602 -516.199,-186.976c-784.534,-173.484 -1328.662,-203.667 -1829.082,-242.539Z" style="fill:#fff;"/></g></svg>