<?xml version="1.0" encoding="UTF-8" standalone="no"?><!DOCTYPE svg PUBLIC "-//W3C//DTD SVG 1.1//EN" "http://www.w3.org/Graphics/SVG/1.1/DTD/svg11.dtd"><svg width="100%" height="100%" viewBox="0 0 2217 2932" version="1.1" xmlns="http://www.w3.org/2000/svg" xmlns:xlink="http://www.w3.org/1999/xlink" xml:space="preserve" xmlns:serif="http://www.serif.com/" style="fill-rule:evenodd;clip-rule:evenodd;stroke-linejoin:round;stroke-miterlimit:2;"><g id="Map_logo"><path id="Body" d="M91.905,1072.388c-37.445,-549.921 370.17,-913.526 730.78,-1002.039c684.346,-167.976 1231.746,341.083 1248.613,895.71c11.798,387.977 -192.414,607.683 -240.058,668.737l-607.872,780.072c-143.85,183.231 -144.32,184.73 -148.199,184.002c-4.008,-0.752 -573.118,-741.732 -686.911,-887.145c-156.078,-199.448 -269.202,-333.328 -296.352,-639.337Zm946.345,-679.288c-64.901,6.88 -117.838,12.022 -219.145,61.178c-256.427,124.422 -406.864,489.064 -199.792,783.895c239.934,341.62 798.524,318.997 981.329,-108.037c134.492,-314.175 -93.866,-761.476 -562.392,-737.035Z" style="fill:#fff;"/><path id="bottom_ring" d="M1404.692,2517.108c-134.057,-9.835 -152.448,-2.804 -141.52,-15.615c87.882,-103.021 105.372,-129.918 112.118,-132.831c6.584,-2.843 150.016,9.4 172.056,11.563c370.673,36.381 475.165,94.207 511.88,114.526c116.909,64.699 101.814,160.111 48.029,210.344c-222.905,208.185 -1549.41,226.219 -1969.83,51.907c-146.427,-60.711 -172.655,-183.901 -35.701,-262.285c161.373,-92.359 585.657,-122.608 665.655,-126.265c4.348,-0.199 6.462,-0.295 38.586,38.352c80.494,96.84 83.143,95.749 82.576,101.125c-0.862,8.175 -182.659,-0.494 -465.587,46.448c-156.263,25.926 -230.412,58.254 -230.215,63.265c0.388,9.862 246.077,102.091 809.021,109.07c690.439,8.559 945.497,-96.715 965.799,-106.52c13.931,-6.728 -85.495,-36.384 -123.888,-44.874c-188.288,-41.636 -318.879,-48.88 -438.98,-58.209Z" style="fill:#fff;"/></g></svg>